<svg version="1.2" xmlns="http://www.w3.org/2000/svg" viewBox="0 0 80 80" width="80" height="80">
    <style>
        .a {
            fill: #383838
        }
    </style>
    <path class="a"
        d="m22.7 11.2q-1.1 0-2.2 0.5-1 0.4-1.8 1.2-0.9 0.8-1.3 1.9-0.4 1-0.4 2.2v46q0 1.2 0.4 2.2 0.4 1.1 1.3 1.9 0.8 0.8 1.8 1.2 1.1 0.5 2.2 0.5h34.6q1.1 0 2.2-0.5 1-0.4 1.8-1.2 0.9-0.8 1.3-1.9 0.4-1 0.4-2.2v-34.5l-17.2-17.3zm0 5.8h20.1v14.4h14.4v31.6h-34.5zm5.7 23.1v5.7h23v-5.7zm0 11.5v5.7h14.4v-5.7z" />
</svg>