<svg version="1.2" xmlns="http://www.w3.org/2000/svg" viewBox="0 0 80 80" width="80" height="80">
    <style>
        .a {
            fill: #424242
        }
    </style>
    <path class="a"
        d="m72.2 62.8c-0.3-0.7-0.6-1.8-0.8-3.4-2.6 2.7-5.8 4-9.4 4-3.2 0-5.8-0.9-7.9-2.7-2-1.8-3.1-4.1-3.1-7q0-5.1 3.9-7.9 3.9-2.8 10.9-2.8h5.5v-2.5q0-2.8-1.8-4.5c-1.1-1.1-2.9-1.7-5.1-1.7q-3 0-5.1 1.4c-1.3 1-2 2.1-2 3.4h-5.6q0-2.4 1.7-4.8c1.1-1.5 2.8-2.7 4.7-3.6 2-0.8 4.1-1.3 6.6-1.3q5.7-0.1 8.8 2.8 3.2 2.8 3.4 7.8v15.1c0 3.1 0.4 5.5 1.1 7.2v0.5zm-9.3-4.3q2.7 0 5-1.3c1.6-0.8 2.7-1.9 3.4-3.2v-6.1h-4.3q-10.3 0-10.3 5.5c0 1.7 0.6 2.8 1.8 3.7 1.1 0.9 2.6 1.4 4.4 1.4zm-42.6-42.2h6.6l18.3 46.5h-7.5l-3.8-9.9h-20.7l-3.7 9.9h-7.5zm-4.5 29.9h15.7l-7.8-21z" />
    <path fill-rule="evenodd" class="a" d="m3.2 5.7h73.6v7.9h-73.6z" />
    <path fill-rule="evenodd" class="a" d="m3.2 66.4h73.6v7.9h-73.6z" />
</svg>