<svg version="1.2" xmlns="http://www.w3.org/2000/svg" viewBox="0 0 80 80" width="80" height="80">
    <style>
        .a {
            fill: #424242
        }
    </style>
    <path class="a"
        d="m40 15c-4.4 0-8.2 1.6-10.6 4.2-2.4 2.7-3.4 6.1-3.4 9.7v2h6v-2c0-2.7 0.8-4.9 2.1-6.4 1.2-1.4 3-2.2 5.9-2.2 2.9 0 4.7 0.8 5.9 2.2 1.3 1.4 2.1 3.6 2.1 6.4v2h6v-2c0-3.7-1.1-7.1-3.4-9.7-2.4-2.6-6.2-4.2-10.6-4.2zm-14 17.6c-3.3 0-6 2.4-6 5.3v17.6c0 3 2.7 5.3 6 5.3h28c3.3 0 6-2.3 6-5.3v-17.6c0-2.9-2.7-5.3-6-5.3zm14 8.8c2.2 0 4 1.6 4 3.6 0 1.3-0.8 2.4-2 3v4c0 1-0.9 1.8-2 1.8-1.1 0-2-0.8-2-1.8v-4c-1.2-0.6-2-1.7-2-3 0-2 1.8-3.6 4-3.6z" />
</svg>