<svg version="1.2" xmlns="http://www.w3.org/2000/svg" viewBox="0 0 80 80" width="80" height="80">
    <style>
        .a {
            fill: #424242
        }
    </style>
    <path class="a"
        d="m32.2 6.8c-14.1 0-25.4 11.3-25.4 25.4 0 14 11.3 25.3 25.4 25.3 5.9 0 11.3-2.1 15.6-5.5l2.3 2.3c-1 1.8-0.6 4.1 0.9 5.6l11.9 11.9c1.8 1.9 4.8 1.9 6.7 0l2.2-2.2c1.9-1.9 1.9-4.9 0-6.7l-11.9-11.9c-1.5-1.5-3.8-1.8-5.6-0.8l-2.3-2.3c3.5-4.3 5.5-9.8 5.5-15.7 0-14.1-11.3-25.4-25.3-25.4zm0 4.7c11.4 0 20.6 9.2 20.6 20.7 0 11.4-9.2 20.6-20.6 20.6-11.5 0-20.7-9.2-20.7-20.6 0-11.5 9.2-20.7 20.7-20.7zm-13.1 14.1c-1.4 2.2-2.1 4.7-2.1 7.4 0 7.9 6.3 14.2 14.1 14.2 3 0 5.9-1 8.2-2.6-0.6 0.1-1.3 0.1-2 0.1-10.1 0-18.2-8.2-18.2-18.3q0-0.4 0-0.8z" />
</svg>