<svg version="1.2" xmlns="http://www.w3.org/2000/svg" viewBox="0 0 80 80" width="80" height="80">
   <style>
      .a {
         fill: #ed730e
      }
   </style>
   <path class="a"
      d="m62.7 56.8c0 6.8-10.2 12.3-22.7 12.3-12.5 0-22.7-5.5-22.7-12.3 0-2.7 1.7-5.3 4.6-7.3-2.9-3.1-4.6-6.9-4.6-11l0.5-3.8c-2.1 0.5-4.5 0.5-6.5 0-3.9-0.8-9.7-4.3-8.8-6.8 0.8-2.4 8-2.9 11.9-2 2.2 0.5 4.6 1.9 6 3.3l2.2-2.5c-2.3-3.4-1.5-12.7 9.8-15.8l-0.3 0.5c-1.1 1.3-3.8 5.6-0.9 10.2 2.7-1 5.7-1.5 8.8-1.5 3.1 0 6.1 0.5 8.8 1.5 2.9-4.6 0.2-8.9-0.9-10.2l-0.3-0.5c11.3 3.1 12.1 12.4 9.8 15.8l2.2 2.5c1.4-1.4 3.8-2.8 6-3.3 3.9-0.9 11.1-0.4 11.9 2 0.9 2.5-4.9 6-8.8 6.8-2 0.5-4.4 0.5-6.5 0l0.5 3.8c0 4.1-1.7 7.9-4.6 11 2.9 2 4.6 4.6 4.6 7.3zm-22.7-6.1c-8.4 0-15.1 2.8-15.1 6.1 0 3.4 6.7 6.1 15.1 6.1 8.4 0 15.1-2.7 15.1-6.1 0-3.3-6.7-6.1-15.1-6.1zm0-6.1c4.2 0 8.2 0.6 11.6 1.7 2.2-2.1 3.5-4.8 3.5-7.8 0-1.6-0.4-3.2-1.1-4.7-0.8-1.5-1.9-2.8-3.3-4-1.4-1.1-3.1-2-4.9-2.6-1.8-0.7-3.8-1-5.8-1-2 0-4 0.3-5.8 1-1.8 0.6-3.5 1.5-4.9 2.6-1.4 1.2-2.5 2.5-3.3 4-0.7 1.5-1.1 3.1-1.1 4.7 0 3 1.3 5.7 3.5 7.8 3.4-1.1 7.4-1.7 11.6-1.7zm7.6-9.2q0.7 0 1.4 0.2 0.7 0.3 1.2 0.7 0.6 0.4 0.9 1 0.2 0.6 0.2 1.2 0 0.6-0.2 1.1-0.3 0.6-0.9 1-0.5 0.5-1.2 0.7-0.7 0.2-1.4 0.2-0.8 0-1.5-0.2-0.7-0.2-1.2-0.7-0.5-0.4-0.8-1-0.3-0.5-0.3-1.1 0-0.6 0.3-1.2 0.3-0.6 0.8-1 0.5-0.4 1.2-0.7 0.7-0.2 1.5-0.2zm-13.3 21.4q0.4 0 0.8 0.1 0.3 0.2 0.6 0.4 0.2 0.2 0.4 0.5 0.1 0.3 0.1 0.6 0 0.3-0.1 0.5-0.2 0.3-0.4 0.5-0.3 0.3-0.6 0.4-0.4 0.1-0.8 0.1-0.3 0-0.7-0.1-0.3-0.1-0.6-0.4-0.3-0.2-0.4-0.5-0.2-0.2-0.2-0.5 0-0.3 0.2-0.6 0.1-0.3 0.4-0.5 0.3-0.2 0.6-0.4 0.4-0.1 0.7-0.1zm11.4 0q0.3 0 0.7 0.1 0.3 0.2 0.6 0.4 0.3 0.2 0.4 0.5 0.2 0.3 0.2 0.6 0 0.3-0.2 0.5-0.1 0.3-0.4 0.5-0.3 0.3-0.6 0.4-0.4 0.1-0.7 0.1-0.4 0-0.8-0.1-0.3-0.1-0.6-0.4-0.2-0.2-0.4-0.5-0.1-0.2-0.1-0.5 0-0.3 0.1-0.6 0.2-0.3 0.4-0.5 0.3-0.2 0.6-0.4 0.4-0.1 0.8-0.1zm-13.3-21.4q0.8 0 1.5 0.2 0.7 0.3 1.2 0.7 0.5 0.4 0.8 1 0.3 0.6 0.3 1.2 0 0.6-0.3 1.1-0.3 0.6-0.8 1-0.5 0.5-1.2 0.7-0.7 0.2-1.5 0.2-0.7 0-1.4-0.2-0.7-0.2-1.2-0.7-0.6-0.4-0.9-1-0.2-0.5-0.2-1.1 0-0.6 0.2-1.2 0.3-0.6 0.9-1 0.5-0.4 1.2-0.7 0.7-0.2 1.4-0.2z" />
</svg>